<?xml version="1.0" encoding="UTF-8" standalone="no"?>
<!-- Created with Inkscape (http://www.inkscape.org/) -->

<svg
   width="33.072914mm"
   height="2.6458335mm"
   viewBox="0 0 33.072914 2.6458335"
   version="1.1"
   id="svg1"
   xml:space="preserve"
   xmlns:inkscape="http://www.inkscape.org/namespaces/inkscape"
   xmlns:sodipodi="http://sodipodi.sourceforge.net/DTD/sodipodi-0.dtd"
   xmlns="http://www.w3.org/2000/svg"
   xmlns:svg="http://www.w3.org/2000/svg"><sodipodi:namedview
     id="namedview1"
     pagecolor="#ffffff"
     bordercolor="#000000"
     borderopacity="0.25"
     inkscape:showpageshadow="2"
     inkscape:pageopacity="0.0"
     inkscape:pagecheckerboard="0"
     inkscape:deskcolor="#d1d1d1"
     inkscape:document-units="mm" /><defs
     id="defs1" /><g
     inkscape:label="Layer 1"
     inkscape:groupmode="layer"
     id="layer1"
     transform="translate(-26.385823,-142.49609)"><g
       style="clip-rule:evenodd;fill-rule:evenodd;stroke-width:4.64896;stroke-linejoin:round;stroke-miterlimit:2"
       id="g1"
       transform="matrix(0.05555896,0,0,0.05829881,26.385823,142.49608)"><path
         d="m 595.276,6.444 v 38.94 H 0 V 6.444 L 2.835,4.807 6.193,4.032 7.112,3.113 l 1.493,0.574 1.494,-1.263 3.56,1.263 0.919,-0.919 1.723,-0.114 1.608,0.689 2.298,0.804 6.2,1.034 1.036,-0.919 1.723,0.114 2.182,0.805 2.987,1.837 2.297,0.69 4.135,-0.46 3.331,0.804 3.561,1.034 2.182,-0.804 2.527,-1.838 1.264,0.919 2.412,1.378 3.561,1.723 2.412,0.115 3.675,1.378 3.906,-1.493 1.033,1.034 4.021,-1.149 1.263,-1.493 2.872,-0.574 3.992,-1.39 3.818,-1.482 2.298,1.379 1.838,1.263 2.526,0.804 2.298,-1.263 2.297,0.919 2.872,0.574 2.297,-0.115 1.378,-0.804 2.297,0.115 1.264,1.148 1.838,0.575 2.642,-0.689 2.182,-0.115 2.986,2.527 3.676,-2.183 2.182,2.298 5.119,0.218 6.318,2.756 3.561,-0.229 3.445,0.689 3.906,-1.608 2.412,-0.575 5.858,0.115 4.365,0.115 1.723,-2.871 1.148,0.114 1.149,-1.378 1.838,0.115 2.986,1.263 1.034,1.608 3.561,1.953 2.871,2.527 2.068,0.574 3.331,2.872 0.919,0.919 2.642,0.23 3.445,1.608 5.858,2.297 0.919,-1.149 3.676,-0.804 4.365,-0.689 2.642,-0.804 3.56,-0.23 1.494,-1.033 2.641,-0.804 5.629,-2.987 1.608,0.689 2.182,-1.608 3.561,-2.986 3.676,-2.297 0.459,-1.609 h 1.608 l 2.757,1.838 1.952,1.838 0.919,-0.23 1.264,1.264 1.378,-0.689 0.575,0.804 h 1.493 l 1.263,-1.608 3.102,3.101 1.493,0.345 1.723,-1.379 3.79,0.23 1.838,1.149 1.838,-0.805 1.838,0.69 2.756,0.115 1.379,0.344 2.067,-1.263 5.858,-1.034 3.791,1.493 4.02,1.149 3.331,-0.575 2.872,0.46 2.641,-0.23 2.068,0.804 2.297,-1.034 2.757,-1.263 2.297,-1.723 3.101,0.115 2.872,1.838 2.986,-0.345 1.264,0.804 3.79,-1.838 1.723,1.379 2.412,-0.804 2.298,0.804 2.412,-1.264 3.216,2.183 2.642,-1.838 2.871,0.344 2.183,-2.297 2.297,-0.689 2.987,-2.183 4.364,2.527 2.872,-1.148 4.02,2.871 h 3.331 l 4.25,-2.297 3.446,0.23 3.446,-2.068 3.79,0.689 3.446,1.264 6.203,-0.459 5.628,-3.102 3.676,-0.344 3.101,-1.034 3.905,0.919 1.723,-2.412 8.156,-2.527 h 8.155 l 2.642,1.148 h 2.986 l 4.25,-3.101 3.905,2.412 6.777,2.642 6.203,-4.25 4.824,2.182 1.723,2.298 3.216,0.919 2.987,3.56 4.364,0.115 2.642,-2.986 1.608,0.115 0.345,1.952 2.182,-0.459 2.068,0.115 1.838,-1.608 2.182,0.804 4.48,-1.723 4.594,1.148 5.054,-2.182 2.298,1.263 2.412,1.838 6.087,0.575 5.629,1.033 1.033,1.379 6.663,0.229 5.053,-0.574 4.94,-0.689 4.709,0.804 5.743,-0.345 3.676,-1.837 4.594,-0.804 5.629,0.459 3.79,1.953 3.446,1.263 4.939,-2.757 4.48,-2.986 1.148,-1.034 4.48,-1.263 4.48,2.412 5.398,4.48 2.068,1.033 h 5.169 l 2.641,-2.871 2.987,0.919 1.838,-2.068 2.756,-0.23 1.723,-2.182 2.872,2.068 1.567,0.344 z"
         id="path1"
         style="stroke-width:4.64896" /></g></g></svg>
