<?xml version="1.0" encoding="UTF-8" standalone="no"?>
<!-- Created with Inkscape (http://www.inkscape.org/) -->

<svg
   width="210mm"
   height="297mm"
   viewBox="0 0 210 297"
   version="1.1"
   id="svg1"
   xml:space="preserve"
   inkscape:version="1.4 (86a8ad7, 2024-10-11)"
   sodipodi:docname="complete.svg"
   xmlns:inkscape="http://www.inkscape.org/namespaces/inkscape"
   xmlns:sodipodi="http://sodipodi.sourceforge.net/DTD/sodipodi-0.dtd"
   xmlns="http://www.w3.org/2000/svg"
   xmlns:svg="http://www.w3.org/2000/svg"><sodipodi:namedview
     id="namedview1"
     pagecolor="#ffffff"
     bordercolor="#000000"
     borderopacity="0.25"
     inkscape:showpageshadow="2"
     inkscape:pageopacity="0.0"
     inkscape:pagecheckerboard="0"
     inkscape:deskcolor="#d1d1d1"
     inkscape:document-units="mm"
     inkscape:zoom="0.73851712"
     inkscape:cx="690.57302"
     inkscape:cy="469.18344"
     inkscape:window-width="1920"
     inkscape:window-height="1009"
     inkscape:window-x="1912"
     inkscape:window-y="-8"
     inkscape:window-maximized="1"
     inkscape:current-layer="layer1"
     showgrid="false" /><defs
     id="defs1"><inkscape:path-effect
       effect="fillet_chamfer"
       id="path-effect8"
       is_visible="true"
       lpeversion="1"
       nodesatellites_param="F,0,0,1,0,0,0,1 @ F,0,0,1,0,0,0,1 @ F,0,0,1,0,0,0,1 @ F,0,1,1,0,21.009975,0,1 @ F,0,0,1,0,6.6889995,0,1 @ F,0,0,1,0,0,0,1 @ F,0,0,1,0,0,0,1 @ F,0,0,1,0,0,0,1 @ F,0,0,1,0,6.6889995,0,1 @ F,0,0,1,0,21.009975,0,1 @ F,0,0,1,0,0,0,1 @ F,0,0,1,0,0,0,1"
       radius="0"
       unit="px"
       method="auto"
       mode="F"
       chamfer_steps="1"
       flexible="false"
       use_knot_distance="true"
       apply_no_radius="true"
       apply_with_radius="true"
       only_selected="false"
       hide_knots="false" /><inkscape:path-effect
       effect="fillet_chamfer"
       id="path-effect27"
       is_visible="true"
       lpeversion="1"
       nodesatellites_param="F,0,0,1,0,0,0,1 @ F,0,0,1,0,0,0,1 @ F,0,0,1,0,0,0,1 @ F,0,1,1,0,21.009975,0,1 @ F,0,0,1,0,6.6889995,0,1 @ F,0,0,1,0,0,0,1 @ F,0,0,1,0,0,0,1 @ F,0,0,1,0,0,0,1 @ F,0,0,1,0,6.6889995,0,1 @ F,0,0,1,0,21.009975,0,1 @ F,0,0,1,0,0,0,1 @ F,0,0,1,0,0,0,1"
       radius="0"
       unit="px"
       method="auto"
       mode="F"
       chamfer_steps="1"
       flexible="false"
       use_knot_distance="true"
       apply_no_radius="true"
       apply_with_radius="true"
       only_selected="false"
       hide_knots="false" /><inkscape:path-effect
       effect="fillet_chamfer"
       id="path-effect24"
       is_visible="true"
       lpeversion="1"
       nodesatellites_param="F,0,0,1,0,0,0,1 @ F,0,0,1,0,0,0,1 @ F,0,0,1,0,0,0,1 @ F,0,1,1,0,21.009975,0,1 @ F,0,0,1,0,6.6889995,0,1 @ F,0,0,1,0,0,0,1 @ F,0,0,1,0,0,0,1 @ F,0,0,1,0,0,0,1 @ F,0,0,1,0,6.6889995,0,1 @ F,0,0,1,0,21.009975,0,1 @ F,0,0,1,0,0,0,1 @ F,0,0,1,0,0,0,1"
       radius="0"
       unit="px"
       method="auto"
       mode="F"
       chamfer_steps="1"
       flexible="false"
       use_knot_distance="true"
       apply_no_radius="true"
       apply_with_radius="true"
       only_selected="false"
       hide_knots="false" /><inkscape:path-effect
       effect="fillet_chamfer"
       id="path-effect22"
       is_visible="true"
       lpeversion="1"
       nodesatellites_param="F,0,0,1,0,0,0,1 @ F,0,0,1,0,0,0,1 @ F,0,0,1,0,0,0,1 @ F,0,1,1,0,21.009975,0,1 @ F,0,0,1,0,6.6889995,0,1 @ F,0,0,1,0,0,0,1 @ F,0,0,1,0,0,0,1 @ F,0,0,1,0,0,0,1 @ F,0,0,1,0,6.6889995,0,1 @ F,0,0,1,0,21.009975,0,1 @ F,0,0,1,0,0,0,1 @ F,0,0,1,0,0,0,1"
       radius="0"
       unit="px"
       method="auto"
       mode="F"
       chamfer_steps="1"
       flexible="false"
       use_knot_distance="true"
       apply_no_radius="true"
       apply_with_radius="true"
       only_selected="false"
       hide_knots="false" /><inkscape:path-effect
       effect="fillet_chamfer"
       id="path-effect19"
       is_visible="true"
       lpeversion="1"
       nodesatellites_param="F,0,0,1,0,0,0,1 @ F,0,0,1,0,0,0,1 @ F,0,0,1,0,0,0,1 @ F,0,1,1,0,21.009975,0,1 @ F,0,0,1,0,6.6889995,0,1 @ F,0,0,1,0,0,0,1 @ F,0,0,1,0,0,0,1 @ F,0,0,1,0,0,0,1 @ F,0,0,1,0,6.6889995,0,1 @ F,0,0,1,0,21.009975,0,1 @ F,0,0,1,0,0,0,1 @ F,0,0,1,0,0,0,1"
       radius="0"
       unit="px"
       method="auto"
       mode="F"
       chamfer_steps="1"
       flexible="false"
       use_knot_distance="true"
       apply_no_radius="true"
       apply_with_radius="true"
       only_selected="false"
       hide_knots="false" /><inkscape:path-effect
       effect="fillet_chamfer"
       id="path-effect15"
       is_visible="true"
       lpeversion="1"
       nodesatellites_param="F,0,0,1,0,0,0,1 @ F,0,0,1,0,0,0,1 @ F,0,0,1,0,0,0,1 @ F,0,1,1,0,21.009975,0,1 @ F,0,0,1,0,6.6889995,0,1 @ F,0,0,1,0,0,0,1 @ F,0,0,1,0,0,0,1 @ F,0,0,1,0,0,0,1 @ F,0,0,1,0,6.6889995,0,1 @ F,0,0,1,0,21.009975,0,1 @ F,0,0,1,0,0,0,1 @ F,0,0,1,0,0,0,1"
       radius="0"
       unit="px"
       method="auto"
       mode="F"
       chamfer_steps="1"
       flexible="false"
       use_knot_distance="true"
       apply_no_radius="true"
       apply_with_radius="true"
       only_selected="false"
       hide_knots="false" /><inkscape:path-effect
       effect="fillet_chamfer"
       id="path-effect13"
       is_visible="true"
       lpeversion="1"
       nodesatellites_param="F,0,0,1,0,0,0,1 @ F,0,0,1,0,0,0,1 @ F,0,0,1,0,0,0,1 @ F,0,1,1,0,21.009975,0,1 @ F,0,0,1,0,6.6889995,0,1 @ F,0,0,1,0,0,0,1 @ F,0,0,1,0,0,0,1 @ F,0,0,1,0,0,0,1 @ F,0,0,1,0,6.6889995,0,1 @ F,0,0,1,0,21.009975,0,1 @ F,0,0,1,0,0,0,1 @ F,0,0,1,0,0,0,1"
       radius="0"
       unit="px"
       method="auto"
       mode="F"
       chamfer_steps="1"
       flexible="false"
       use_knot_distance="true"
       apply_no_radius="true"
       apply_with_radius="true"
       only_selected="false"
       hide_knots="false" /><inkscape:path-effect
       effect="fillet_chamfer"
       id="path-effect11"
       is_visible="true"
       lpeversion="1"
       nodesatellites_param="F,0,0,1,0,0,0,1 @ F,0,0,1,0,0,0,1 @ F,0,0,1,0,0,0,1 @ F,0,1,1,0,21.009975,0,1 @ F,0,0,1,0,6.6889995,0,1 @ F,0,0,1,0,0,0,1 @ F,0,0,1,0,0,0,1 @ F,0,0,1,0,0,0,1 @ F,0,0,1,0,6.6889995,0,1 @ F,0,0,1,0,21.009975,0,1 @ F,0,0,1,0,0,0,1 @ F,0,0,1,0,0,0,1"
       radius="0"
       unit="px"
       method="auto"
       mode="F"
       chamfer_steps="1"
       flexible="false"
       use_knot_distance="true"
       apply_no_radius="true"
       apply_with_radius="true"
       only_selected="false"
       hide_knots="false" /><inkscape:path-effect
       effect="fillet_chamfer"
       id="path-effect5"
       is_visible="true"
       lpeversion="1"
       nodesatellites_param="F,0,0,1,0,0,0,1 @ F,0,0,1,0,0,0,1 @ F,0,0,1,0,0,0,1 @ F,0,1,1,0,21.009975,0,1 @ F,0,0,1,0,6.6889995,0,1 @ F,0,0,1,0,0,0,1 @ F,0,0,1,0,0,0,1 @ F,0,0,1,0,0,0,1 @ F,0,0,1,0,6.6889995,0,1 @ F,0,0,1,0,21.009975,0,1 @ F,0,0,1,0,0,0,1 @ F,0,0,1,0,0,0,1"
       radius="0"
       unit="px"
       method="auto"
       mode="F"
       chamfer_steps="1"
       flexible="false"
       use_knot_distance="true"
       apply_no_radius="true"
       apply_with_radius="true"
       only_selected="false"
       hide_knots="false" /><inkscape:path-effect
       effect="fillet_chamfer"
       id="path-effect4"
       is_visible="true"
       lpeversion="1"
       nodesatellites_param="F,0,0,1,0,0,0,1 @ F,0,0,1,0,0,0,1 @ F,0,0,1,0,13.483819,0,1 @ F,0,0,1,0,0,0,1 @ F,0,0,1,0,0,0,1 @ F,0,0,1,0,0,0,1 @ F,0,0,1,0,0,0,1 @ F,0,0,1,0,0,0,1 @ F,0,0,1,0,10.759979,0,1 @ F,0,0,1,0,0,0,1"
       radius="0"
       unit="px"
       method="auto"
       mode="F"
       chamfer_steps="1"
       flexible="false"
       use_knot_distance="true"
       apply_no_radius="true"
       apply_with_radius="true"
       only_selected="false"
       hide_knots="false" /><inkscape:path-effect
       effect="fillet_chamfer"
       id="path-effect11-4"
       is_visible="true"
       lpeversion="1"
       nodesatellites_param="F,0,0,1,0,0,0,1 @ F,0,0,1,0,0,0,1 @ F,0,0,1,0,0,0,1 @ F,0,1,1,0,21.009975,0,1 @ F,0,0,1,0,6.6889995,0,1 @ F,0,0,1,0,0,0,1 @ F,0,0,1,0,0,0,1 @ F,0,0,1,0,0,0,1 @ F,0,0,1,0,6.6889995,0,1 @ F,0,0,1,0,21.009975,0,1 @ F,0,0,1,0,0,0,1 @ F,0,0,1,0,0,0,1"
       radius="0"
       unit="px"
       method="auto"
       mode="F"
       chamfer_steps="1"
       flexible="false"
       use_knot_distance="true"
       apply_no_radius="true"
       apply_with_radius="true"
       only_selected="false"
       hide_knots="false" /></defs><g
     inkscape:label="Layer 1"
     inkscape:groupmode="layer"
     id="layer1"><rect
       style="fill:#000000;fill-opacity:1;stroke:#000000;stroke-width:1.41111;stroke-linecap:round;stroke-linejoin:round;stroke-dasharray:none;stroke-opacity:1"
       id="rect15"
       width="210"
       height="297"
       x="8.1393222e-07"
       y="-5.5672223e-07" /><path
       id="path4"
       style="fill:#55944e;fill-opacity:1;stroke:#ffffff;stroke-width:15.21309497;stroke-linecap:round;stroke-linejoin:round;stroke-dasharray:none;stroke-opacity:1;paint-order:markers stroke fill"
       d="M 15.533841,127.78558 C 7.2195825,120.5814 -3.4129968,116.61575 -14.414232,116.6158 c -25.257209,0 -45.732224,20.47501 -45.732217,45.73222 0.01024,3.35024 0.388238,6.66703 1.114221,9.89482 2.523874,11.22138 2.424508,25.39539 -5.780399,33.60029 -2.443834,2.44384 -7.65567,3.46042 -10.964564,4.93554 -1.069959,0.47699 -2.061325,1.1491 -2.918077,2.00144 -3.824278,3.82428 -3.824278,10.02467 0,13.84895 3.824283,3.82428 10.024664,3.82428 13.848947,0 0.859726,-0.86026 1.537175,-1.85721 2.01712,-2.93378 1.475136,-3.3089 2.628389,-8.6574 5.240606,-11.26962 8.027847,-8.02784 22.058161,-7.98351 33.279544,-5.45964 3.227791,0.72598 6.544579,1.10398 9.894819,1.11422 25.257209,0 45.732224,-20.47501 45.732217,-45.73222 5.9e-5,-13.26472 -5.759294,-25.87594 -15.784144,-34.56244 z"
       transform="matrix(0.23192842,-0.23287394,0.23192842,0.23287394,39.562714,53.155211)"
       inkscape:path-effect="#path-effect5"
       inkscape:original-d="m 15.533841,127.78558 a 45.732208,45.732208 0 0 0 -29.948073,-11.16978 45.732208,45.732208 0 0 0 -45.732217,45.73222 45.732208,45.732208 0 0 0 10.19012,28.63882 l -19.281095,19.28109 a 9.7926941,9.7926941 0 0 0 -9.457844,2.51218 9.7926941,9.7926941 0 0 0 0,13.84895 9.7926941,9.7926941 0 0 0 13.848947,0 9.7926941,9.7926941 0 0 0 2.527889,-9.47356 l 19.265383,-19.26538 a 45.732208,45.732208 0 0 0 28.638817,10.19012 45.732208,45.732208 0 0 0 45.732217,-45.73222 45.732208,45.732208 0 0 0 -15.784144,-34.56244 z"
       inkscape:export-filename="marker_start.svg"
       inkscape:export-xdpi="96"
       inkscape:export-ydpi="96" /><circle
       style="fill:#ffffff;fill-opacity:1;stroke:none;stroke-width:3.99999;stroke-linecap:round;stroke-linejoin:round;stroke-dasharray:none;stroke-opacity:1"
       id="path5"
       cx="73.872765"
       cy="94.318527"
       r="11.499999" /><path
       d="m 70.162277,87.65186 v 13.30517 l 10.810457,-6.652585 z"
       id="path2-22"
       style="fill:#416d3b;fill-opacity:1;stroke:#416d3b;stroke-width:1.41111;stroke-linecap:round;stroke-linejoin:round;stroke-dasharray:none;stroke-opacity:1" /><path
       id="path9"
       style="fill:#d45d5d;fill-opacity:1;stroke:#ffffff;stroke-width:15.21309497;stroke-linecap:round;stroke-linejoin:round;stroke-dasharray:none;stroke-opacity:1;paint-order:markers stroke fill"
       d="M 15.533841,127.78558 C 7.2195825,120.5814 -3.4129968,116.61575 -14.414232,116.6158 c -25.257209,0 -45.732224,20.47501 -45.732217,45.73222 0.01024,3.35024 0.388238,6.66703 1.114221,9.89482 2.523874,11.22138 2.424508,25.39539 -5.780399,33.60029 -2.443834,2.44384 -7.65567,3.46042 -10.964564,4.93554 -1.069959,0.47699 -2.061325,1.1491 -2.918077,2.00144 -3.824278,3.82428 -3.824278,10.02467 0,13.84895 3.824283,3.82428 10.024664,3.82428 13.848947,0 0.859726,-0.86026 1.537175,-1.85721 2.01712,-2.93378 1.475136,-3.3089 2.628389,-8.6574 5.240606,-11.26962 8.027847,-8.02784 22.058161,-7.98351 33.279544,-5.45964 3.227791,0.72598 6.544579,1.10398 9.894819,1.11422 25.257209,0 45.732224,-20.47501 45.732217,-45.73222 5.9e-5,-13.26472 -5.759294,-25.87594 -15.784144,-34.56244 z"
       transform="matrix(0.23192842,-0.23287394,0.23192842,0.23287394,0.40438163,82.52396)"
       inkscape:path-effect="#path-effect11"
       inkscape:original-d="m 15.533841,127.78558 a 45.732208,45.732208 0 0 0 -29.948073,-11.16978 45.732208,45.732208 0 0 0 -45.732217,45.73222 45.732208,45.732208 0 0 0 10.19012,28.63882 l -19.281095,19.28109 a 9.7926941,9.7926941 0 0 0 -9.457844,2.51218 9.7926941,9.7926941 0 0 0 0,13.84895 9.7926941,9.7926941 0 0 0 13.848947,0 9.7926941,9.7926941 0 0 0 2.527889,-9.47356 l 19.265383,-19.26538 a 45.732208,45.732208 0 0 0 28.638817,10.19012 45.732208,45.732208 0 0 0 45.732217,-45.73222 45.732208,45.732208 0 0 0 -15.784144,-34.56244 z"
       inkscape:export-filename="marker_stop.svg"
       inkscape:export-xdpi="96"
       inkscape:export-ydpi="96" /><circle
       style="fill:#ffffff;fill-opacity:1;stroke:none;stroke-width:3.99999;stroke-linecap:round;stroke-linejoin:round;stroke-dasharray:none;stroke-opacity:1"
       id="circle9"
       cx="34.690136"
       cy="123.61115"
       r="11.475707" /><path
       d="m 28.881098,117.85394 m 0,1.66666 a 1.6666667,1.6666667 0 0 1 1.66666,-1.66666 h 8.33334 a 1.6666667,1.6666667 0 0 1 1.66666,1.66666 v 8.33334 a 1.6666667,1.6666667 0 0 1 -1.66666,1.66666 h -8.33334 a 1.6666667,1.6666667 0 0 1 -1.66666,-1.66666 z"
       id="path2"
       style="fill:#ae4343;stroke:#ae4343;stroke-width:1.41111111;stroke-linecap:round;stroke-linejoin:round;stroke-dasharray:none;fill-opacity:1;stroke-opacity:1" /><path
       id="path13"
       style="fill:#435c99;fill-opacity:1;stroke:#ffffff;stroke-width:15.21309497;stroke-linecap:round;stroke-linejoin:round;stroke-dasharray:none;stroke-opacity:1;paint-order:markers stroke fill"
       d="M 15.533841,127.78558 C 7.2195825,120.5814 -3.4129968,116.61575 -14.414232,116.6158 c -25.257209,0 -45.732224,20.47501 -45.732217,45.73222 0.01024,3.35024 0.388238,6.66703 1.114221,9.89482 2.523874,11.22138 2.424508,25.39539 -5.780399,33.60029 -2.443834,2.44384 -7.65567,3.46042 -10.964564,4.93554 -1.069959,0.47699 -2.061325,1.1491 -2.918077,2.00144 -3.824278,3.82428 -3.824278,10.02467 0,13.84895 3.824283,3.82428 10.024664,3.82428 13.848947,0 0.859726,-0.86026 1.537175,-1.85721 2.01712,-2.93378 1.475136,-3.3089 2.628389,-8.6574 5.240606,-11.26962 8.027847,-8.02784 22.058161,-7.98351 33.279544,-5.45964 3.227791,0.72598 6.544579,1.10398 9.894819,1.11422 25.257209,0 45.732224,-20.47501 45.732217,-45.73222 5.9e-5,-13.26472 -5.759294,-25.87594 -15.784144,-34.56244 z"
       transform="matrix(0.23192842,-0.23287394,0.23192842,0.23287394,73.163994,83.42751)"
       inkscape:path-effect="#path-effect15"
       inkscape:original-d="m 15.533841,127.78558 a 45.732208,45.732208 0 0 0 -29.948073,-11.16978 45.732208,45.732208 0 0 0 -45.732217,45.73222 45.732208,45.732208 0 0 0 10.19012,28.63882 l -19.281095,19.28109 a 9.7926941,9.7926941 0 0 0 -9.457844,2.51218 9.7926941,9.7926941 0 0 0 0,13.84895 9.7926941,9.7926941 0 0 0 13.848947,0 9.7926941,9.7926941 0 0 0 2.527889,-9.47356 l 19.265383,-19.26538 a 45.732208,45.732208 0 0 0 28.638817,10.19012 45.732208,45.732208 0 0 0 45.732217,-45.73222 45.732208,45.732208 0 0 0 -15.784144,-34.56244 z"
       inkscape:export-filename="marker_sleep.svg"
       inkscape:export-xdpi="96"
       inkscape:export-ydpi="96" /><circle
       style="fill:#ffffff;fill-opacity:1;stroke:none;stroke-width:3.99999;stroke-linecap:round;stroke-linejoin:round;stroke-dasharray:none;stroke-opacity:1"
       id="circle13"
       cx="107.47404"
       cy="124.59082"
       r="11.499999" /><path
       d="m 107.75938,117.09749 c 0.11,0 0.21917,0 0.3275,0 a 6.25,6.25 0 0 0 6.6,10.37167 7.5,7.5 0 1 1 -6.9275,-10.37834 z"
       id="path2-16"
       style="fill:#616161;stroke:#616161;stroke-width:1.41111;stroke-linecap:round;stroke-linejoin:round;stroke-dasharray:none;fill-opacity:1;stroke-opacity:1" /><path
       id="path15"
       style="fill:#435c99;fill-opacity:1;stroke:#ffffff;stroke-width:15.21309497;stroke-linecap:round;stroke-linejoin:round;stroke-dasharray:none;stroke-opacity:1;paint-order:markers stroke fill"
       d="M 15.533841,127.78558 C 7.2195825,120.5814 -3.4129968,116.61575 -14.414232,116.6158 c -25.257209,0 -45.732224,20.47501 -45.732217,45.73222 0.01024,3.35024 0.388238,6.66703 1.114221,9.89482 2.523874,11.22138 2.424508,25.39539 -5.780399,33.60029 -2.443834,2.44384 -7.65567,3.46042 -10.964564,4.93554 -1.069959,0.47699 -2.061325,1.1491 -2.918077,2.00144 -3.824278,3.82428 -3.824278,10.02467 0,13.84895 3.824283,3.82428 10.024664,3.82428 13.848947,0 0.859726,-0.86026 1.537175,-1.85721 2.01712,-2.93378 1.475136,-3.3089 2.628389,-8.6574 5.240606,-11.26962 8.027847,-8.02784 22.058161,-7.98351 33.279544,-5.45964 3.227791,0.72598 6.544579,1.10398 9.894819,1.11422 25.257209,0 45.732224,-20.47501 45.732217,-45.73222 5.9e-5,-13.26472 -5.759294,-25.87594 -15.784144,-34.56244 z"
       transform="matrix(0.23192842,-0.23287394,0.23192842,0.23287394,43.5676,117.21318)"
       inkscape:path-effect="#path-effect19"
       inkscape:original-d="m 15.533841,127.78558 a 45.732208,45.732208 0 0 0 -29.948073,-11.16978 45.732208,45.732208 0 0 0 -45.732217,45.73222 45.732208,45.732208 0 0 0 10.19012,28.63882 l -19.281095,19.28109 a 9.7926941,9.7926941 0 0 0 -9.457844,2.51218 9.7926941,9.7926941 0 0 0 0,13.84895 9.7926941,9.7926941 0 0 0 13.848947,0 9.7926941,9.7926941 0 0 0 2.527889,-9.47356 l 19.265383,-19.26538 a 45.732208,45.732208 0 0 0 28.638817,10.19012 45.732208,45.732208 0 0 0 45.732217,-45.73222 45.732208,45.732208 0 0 0 -15.784144,-34.56244 z"
       inkscape:export-filename="marker_default.svg"
       inkscape:export-xdpi="96"
       inkscape:export-ydpi="96" /><circle
       style="fill:#ffffff;fill-opacity:1;stroke:none;stroke-width:3.99999;stroke-linecap:round;stroke-linejoin:round;stroke-dasharray:none;stroke-opacity:1"
       id="circle15"
       cx="77.877647"
       cy="158.37648"
       r="8.2756319" /><path
       id="path20"
       style="fill:#684399;fill-opacity:1;stroke:#ffffff;stroke-width:15.2131;stroke-linecap:round;stroke-linejoin:round;stroke-dasharray:none;stroke-opacity:1;paint-order:markers stroke fill"
       d="M 15.533841,127.78558 C 7.2195825,120.5814 -3.4129968,116.61575 -14.414232,116.6158 c -25.257209,0 -45.732224,20.47501 -45.732217,45.73222 0.01024,3.35024 0.388238,6.66703 1.114221,9.89482 2.523874,11.22138 2.424508,25.39539 -5.780399,33.60029 -2.443834,2.44384 -7.65567,3.46042 -10.964564,4.93554 -1.069959,0.47699 -2.061325,1.1491 -2.918077,2.00144 -3.824278,3.82428 -3.824278,10.02467 0,13.84895 3.824283,3.82428 10.024664,3.82428 13.848947,0 0.859726,-0.86026 1.537175,-1.85721 2.01712,-2.93378 1.475136,-3.3089 2.628389,-8.6574 5.240606,-11.26962 8.027847,-8.02784 22.058161,-7.98351 33.279544,-5.45964 3.227791,0.72598 6.544579,1.10398 9.894819,1.11422 25.257209,0 45.732224,-20.47501 45.732217,-45.73222 5.9e-5,-13.26472 -5.759294,-25.87594 -15.784144,-34.56244 z"
       transform="matrix(0.23192842,-0.23287394,0.23192842,0.23287394,102.14056,120.68686)"
       inkscape:path-effect="#path-effect22"
       inkscape:original-d="m 15.533841,127.78558 a 45.732208,45.732208 0 0 0 -29.948073,-11.16978 45.732208,45.732208 0 0 0 -45.732217,45.73222 45.732208,45.732208 0 0 0 10.19012,28.63882 l -19.281095,19.28109 a 9.7926941,9.7926941 0 0 0 -9.457844,2.51218 9.7926941,9.7926941 0 0 0 0,13.84895 9.7926941,9.7926941 0 0 0 13.848947,0 9.7926941,9.7926941 0 0 0 2.527889,-9.47356 l 19.265383,-19.26538 a 45.732208,45.732208 0 0 0 28.638817,10.19012 45.732208,45.732208 0 0 0 45.732217,-45.73222 45.732208,45.732208 0 0 0 -15.784144,-34.56244 z"
       inkscape:export-filename="marker_shop.svg"
       inkscape:export-xdpi="96"
       inkscape:export-ydpi="96" /><circle
       style="fill:#ffffff;fill-opacity:1;stroke:none;stroke-width:3.99999;stroke-linecap:round;stroke-linejoin:round;stroke-dasharray:none;stroke-opacity:1"
       id="circle20"
       cx="136.45061"
       cy="161.85017"
       r="11.499999" /><g
       id="g22"
       style="stroke-width:1.20253;stroke-dasharray:none"
       transform="matrix(1.1734428,0,0,1.1734428,92.856618,-100.14813)"><path
         d="m 32.425919,219.26342 h 9.449167 a 1.6666667,1.6666667 0 0 1 1.6475,1.92 l -1.045833,6.79333 a 2.5,2.5 0 0 1 -2.471667,2.12 h -5.71 a 2.5,2.5 0 0 1 -2.470833,-2.12 l -1.045834,-6.79333 a 1.6666667,1.6666667 0 0 1 1.6475,-1.92 z"
         id="path2-7"
         style="fill:none;stroke:#000000;stroke-width:1.20253;stroke-linecap:round;stroke-linejoin:round;stroke-dasharray:none" /><path
         d="m 34.650086,221.76342 v -4.16667 a 2.5,2.5 0 0 1 5,0 v 4.16667"
         id="path3"
         style="fill:none;stroke:#000000;stroke-width:1.20253;stroke-linecap:round;stroke-linejoin:round;stroke-dasharray:none" /></g><path
       id="path22"
       style="fill:#e08c8c;fill-opacity:1;stroke:#ffffff;stroke-width:15.2131;stroke-linecap:round;stroke-linejoin:round;stroke-dasharray:none;stroke-opacity:1;paint-order:markers stroke fill"
       d="M 15.533841,127.78558 C 7.2195825,120.5814 -3.4129968,116.61575 -14.414232,116.6158 c -25.257209,0 -45.732224,20.47501 -45.732217,45.73222 0.01024,3.35024 0.388238,6.66703 1.114221,9.89482 2.523874,11.22138 2.424508,25.39539 -5.780399,33.60029 -2.443834,2.44384 -7.65567,3.46042 -10.964564,4.93554 -1.069959,0.47699 -2.061325,1.1491 -2.918077,2.00144 -3.824278,3.82428 -3.824278,10.02467 0,13.84895 3.824283,3.82428 10.024664,3.82428 13.848947,0 0.859726,-0.86026 1.537175,-1.85721 2.01712,-2.93378 1.475136,-3.3089 2.628389,-8.6574 5.240606,-11.26962 8.027847,-8.02784 22.058161,-7.98351 33.279544,-5.45964 3.227791,0.72598 6.544579,1.10398 9.894819,1.11422 25.257209,0 45.732224,-20.47501 45.732217,-45.73222 5.9e-5,-13.26472 -5.759294,-25.87594 -15.784144,-34.56244 z"
       transform="matrix(0.23192842,-0.23287394,0.23192842,0.23287394,1.2389693,149.71747)"
       inkscape:path-effect="#path-effect24"
       inkscape:original-d="m 15.533841,127.78558 a 45.732208,45.732208 0 0 0 -29.948073,-11.16978 45.732208,45.732208 0 0 0 -45.732217,45.73222 45.732208,45.732208 0 0 0 10.19012,28.63882 l -19.281095,19.28109 a 9.7926941,9.7926941 0 0 0 -9.457844,2.51218 9.7926941,9.7926941 0 0 0 0,13.84895 9.7926941,9.7926941 0 0 0 13.848947,0 9.7926941,9.7926941 0 0 0 2.527889,-9.47356 l 19.265383,-19.26538 a 45.732208,45.732208 0 0 0 28.638817,10.19012 45.732208,45.732208 0 0 0 45.732217,-45.73222 45.732208,45.732208 0 0 0 -15.784144,-34.56244 z"
       inkscape:export-filename="marker_forbidden.svg"
       inkscape:export-xdpi="96"
       inkscape:export-ydpi="96" /><circle
       style="fill:#ffffff;fill-opacity:1;stroke:none;stroke-width:3.99999;stroke-linecap:round;stroke-linejoin:round;stroke-dasharray:none;stroke-opacity:1"
       id="circle22"
       cx="35.524723"
       cy="190.80466"
       r="11.475707" /><path
       stroke="none"
       d="m 72.069822,206.09448 h 20 v 20 h -20 z"
       fill="none"
       id="path1-6"
       style="stroke-width:0.529167;stroke-linecap:round;stroke-linejoin:round" /><path
       d="m 35.524723,190.80466 m -7.5,0 a 7.5,7.5 0 1 0 15,0 7.5,7.5 0 1 0 -15,0"
       id="path2-1"
       style="fill:none;stroke:#f50000;stroke-width:2.11667;stroke-linecap:round;stroke-linejoin:round;stroke-dasharray:none;stroke-opacity:1" /><path
       d="m 30.221422,185.50136 10.606602,10.6066"
       id="path3-8-9-1-4"
       style="fill:none;stroke:#f50000;stroke-width:2.11667;stroke-linecap:round;stroke-linejoin:round;stroke-dasharray:none;stroke-opacity:1"
       sodipodi:nodetypes="cc" /><path
       id="path24"
       style="fill:#e0b78c;fill-opacity:1;stroke:#ffffff;stroke-width:15.2131;stroke-linecap:round;stroke-linejoin:round;stroke-dasharray:none;stroke-opacity:1;paint-order:markers stroke fill"
       d="M 15.533841,127.78558 C 7.2195825,120.5814 -3.4129968,116.61575 -14.414232,116.6158 c -25.257209,0 -45.732224,20.47501 -45.732217,45.73222 0.01024,3.35024 0.388238,6.66703 1.114221,9.89482 2.523874,11.22138 2.424508,25.39539 -5.780399,33.60029 -2.443834,2.44384 -7.65567,3.46042 -10.964564,4.93554 -1.069959,0.47699 -2.061325,1.1491 -2.918077,2.00144 -3.824278,3.82428 -3.824278,10.02467 0,13.84895 3.824283,3.82428 10.024664,3.82428 13.848947,0 0.859726,-0.86026 1.537175,-1.85721 2.01712,-2.93378 1.475136,-3.3089 2.628389,-8.6574 5.240606,-11.26962 8.027847,-8.02784 22.058161,-7.98351 33.279544,-5.45964 3.227791,0.72598 6.544579,1.10398 9.894819,1.11422 25.257209,0 45.732224,-20.47501 45.732217,-45.73222 5.9e-5,-13.26472 -5.759294,-25.87594 -15.784144,-34.56244 z"
       transform="matrix(0.23192842,-0.23287394,0.23192842,0.23287394,69.766051,149.71747)"
       inkscape:path-effect="#path-effect27"
       inkscape:original-d="m 15.533841,127.78558 a 45.732208,45.732208 0 0 0 -29.948073,-11.16978 45.732208,45.732208 0 0 0 -45.732217,45.73222 45.732208,45.732208 0 0 0 10.19012,28.63882 l -19.281095,19.28109 a 9.7926941,9.7926941 0 0 0 -9.457844,2.51218 9.7926941,9.7926941 0 0 0 0,13.84895 9.7926941,9.7926941 0 0 0 13.848947,0 9.7926941,9.7926941 0 0 0 2.527889,-9.47356 l 19.265383,-19.26538 a 45.732208,45.732208 0 0 0 28.638817,10.19012 45.732208,45.732208 0 0 0 45.732217,-45.73222 45.732208,45.732208 0 0 0 -15.784144,-34.56244 z"
       inkscape:export-filename="marker_warn.svg"
       inkscape:export-xdpi="96"
       inkscape:export-ydpi="96" /><circle
       style="fill:#ffffff;fill-opacity:1;stroke:none;stroke-width:3.99999;stroke-linecap:round;stroke-linejoin:round;stroke-dasharray:none;stroke-opacity:1"
       id="circle24"
       cx="104.0518"
       cy="190.80466"
       r="11.475707" /><g
       id="g27"
       transform="translate(-26.046571,-57.186966)"><path
         d="m 130.09862,244.46088 v 3.33333"
         id="path2-11"
         style="fill:none;stroke:#cc9033;stroke-width:1.76389;stroke-linecap:round;stroke-linejoin:round;stroke-dasharray:none;stroke-opacity:1" /><path
         d="m 128.73445,239.95338 -6.755,11.27833 a 1.595,1.595 0 0 0 1.36333,2.3925 h 13.51167 a 1.595,1.595 0 0 0 1.36333,-2.39166 l -6.755,-11.28 a 1.595,1.595 0 0 0 -2.72833,0 z"
         id="path3-3"
         style="fill:none;stroke:#cc9033;stroke-width:1.76389;stroke-linecap:round;stroke-linejoin:round;stroke-dasharray:none;stroke-opacity:1" /><path
         d="m 130.09862,250.29421 h 0.008"
         id="path4-8"
         style="fill:none;stroke:#cc9033;stroke-width:1.76389;stroke-linecap:round;stroke-linejoin:round;stroke-dasharray:none;stroke-opacity:1" /></g><circle
       style="fill:#d45d5d;stroke:#ffffff;stroke-width:5;stroke-linecap:round;stroke-linejoin:round;paint-order:markers stroke fill;stroke-dasharray:none;stroke-opacity:1;fill-opacity:1"
       id="path1"
       cx="142.76779"
       cy="92.431847"
       r="15"
       inkscape:export-filename="point_stop.svg"
       inkscape:export-xdpi="96"
       inkscape:export-ydpi="96" /><circle
       style="fill:#ffffff;fill-opacity:1;stroke:none;stroke-width:3.99999;stroke-linecap:round;stroke-linejoin:round;stroke-dasharray:none;stroke-opacity:1"
       id="circle9-2-7"
       cx="142.76779"
       cy="92.431847"
       r="11.475707" /><path
       d="m 136.95875,86.674634 m 0,1.66666 a 1.6666667,1.6666667 0 0 1 1.66666,-1.66666 h 8.33334 a 1.6666667,1.6666667 0 0 1 1.66666,1.66666 v 8.33334 a 1.6666667,1.6666667 0 0 1 -1.66666,1.66666 h -8.33334 a 1.6666667,1.6666667 0 0 1 -1.66666,-1.66666 z"
       id="path2-4-1"
       style="fill:#ae4343;fill-opacity:1;stroke:#ae4343;stroke-width:1.41111;stroke-linecap:round;stroke-linejoin:round;stroke-dasharray:none;stroke-opacity:1" /><circle
       style="fill:#55944e;fill-opacity:1;stroke:#ffffff;stroke-width:5;stroke-linecap:round;stroke-linejoin:round;stroke-dasharray:none;stroke-opacity:1;paint-order:markers stroke fill"
       id="circle8"
       cx="157.81483"
       cy="51.58987"
       r="15"
       inkscape:export-filename="point_start.svg"
       inkscape:export-xdpi="96"
       inkscape:export-ydpi="96" /><circle
       style="fill:#ffffff;fill-opacity:1;stroke:none;stroke-width:3.99999;stroke-linecap:round;stroke-linejoin:round;stroke-dasharray:none;stroke-opacity:1"
       id="circle6-7"
       cx="157.81483"
       cy="51.58987"
       r="11.499999" /><path
       d="m 154.10435,44.923204 v 13.30517 l 10.81045,-6.652585 z"
       id="path7-6"
       style="fill:#416d3b;fill-opacity:1;stroke:#416d3b;stroke-width:1.41111;stroke-linecap:round;stroke-linejoin:round;stroke-dasharray:none;stroke-opacity:1" /></g></svg>
