<?xml version="1.0" encoding="UTF-8" standalone="no"?>
<!-- Created with Inkscape (http://www.inkscape.org/) -->

<svg
   width="34.958496mm"
   height="50.010151mm"
   viewBox="0 0 34.958496 50.010151"
   version="1.1"
   id="svg1"
   xml:space="preserve"
   xmlns="http://www.w3.org/2000/svg"
   xmlns:svg="http://www.w3.org/2000/svg"><defs
     id="defs1" /><g
     id="layer1"
     transform="translate(-17.235182,-106.12098)"><path
       id="path9"
       style="fill:#d45d5d;fill-opacity:1;stroke:#ffffff;stroke-width:15.2131;stroke-linecap:round;stroke-linejoin:round;stroke-dasharray:none;stroke-opacity:1;paint-order:markers stroke fill"
       d="M 15.533841,127.78558 C 7.2195825,120.5814 -3.4129968,116.61575 -14.414232,116.6158 c -25.257209,0 -45.732224,20.47501 -45.732217,45.73222 0.01024,3.35024 0.388238,6.66703 1.114221,9.89482 2.523874,11.22138 2.424508,25.39539 -5.780399,33.60029 -2.443834,2.44384 -7.65567,3.46042 -10.964564,4.93554 -1.069959,0.47699 -2.061325,1.1491 -2.918077,2.00144 -3.824278,3.82428 -3.824278,10.02467 0,13.84895 3.824283,3.82428 10.024664,3.82428 13.848947,0 0.859726,-0.86026 1.537175,-1.85721 2.01712,-2.93378 1.475136,-3.3089 2.628389,-8.6574 5.240606,-11.26962 8.027847,-8.02784 22.058161,-7.98351 33.279544,-5.45964 3.227791,0.72598 6.544579,1.10398 9.894819,1.11422 25.257209,0 45.732224,-20.47501 45.732217,-45.73222 5.9e-5,-13.26472 -5.759294,-25.87594 -15.784144,-34.56244 z"
       transform="matrix(0.23192842,-0.23287394,0.23192842,0.23287394,0.40438163,82.52396)" /><circle
       style="fill:#ffffff;fill-opacity:1;stroke:none;stroke-width:3.99999;stroke-linecap:round;stroke-linejoin:round;stroke-dasharray:none;stroke-opacity:1"
       id="circle9"
       cx="34.690136"
       cy="123.61115"
       r="11.475707" /><path
       d="m 28.881098,117.85394 m 0,1.66666 a 1.6666667,1.6666667 0 0 1 1.66666,-1.66666 h 8.33334 a 1.6666667,1.6666667 0 0 1 1.66666,1.66666 v 8.33334 a 1.6666667,1.6666667 0 0 1 -1.66666,1.66666 h -8.33334 a 1.6666667,1.6666667 0 0 1 -1.66666,-1.66666 z"
       id="path2"
       style="fill:#ae4343;fill-opacity:1;stroke:#ae4343;stroke-width:1.41111;stroke-linecap:round;stroke-linejoin:round;stroke-dasharray:none;stroke-opacity:1" /></g></svg>
