<?xml version="1.0" encoding="UTF-8" standalone="no"?>
<svg
   xmlns:dc="http://purl.org/dc/elements/1.1/"
   xmlns:cc="http://creativecommons.org/ns#"
   xmlns:rdf="http://www.w3.org/1999/02/22-rdf-syntax-ns#"
   xmlns:svg="http://www.w3.org/2000/svg"
   xmlns="http://www.w3.org/2000/svg"
   xmlns:sodipodi="http://sodipodi.sourceforge.net/DTD/sodipodi-0.dtd"
   xmlns:inkscape="http://www.inkscape.org/namespaces/inkscape"
   class="icon__calendar"
   version="1.1"
   viewBox="0 0 32 32"
   id="svg42"
   sodipodi:docname="calendar.svg"
   inkscape:version="0.92.4 (5da689c313, 2019-01-14)">
  <metadata
     id="metadata48">
    <rdf:RDF>
      <cc:Work
         rdf:about="">
        <dc:format>image/svg+xml</dc:format>
        <dc:type
           rdf:resource="http://purl.org/dc/dcmitype/StillImage" />
        <dc:title></dc:title>
      </cc:Work>
    </rdf:RDF>
  </metadata>
  <defs
     id="defs46" />
  <sodipodi:namedview
     pagecolor="#ffffff"
     bordercolor="#666666"
     borderopacity="1"
     objecttolerance="10"
     gridtolerance="10"
     guidetolerance="10"
     inkscape:pageopacity="0"
     inkscape:pageshadow="2"
     inkscape:window-width="846"
     inkscape:window-height="480"
     id="namedview44"
     showgrid="false"
     inkscape:zoom="7.375"
     inkscape:cx="16"
     inkscape:cy="16"
     inkscape:window-x="0"
     inkscape:window-y="0"
     inkscape:window-maximized="0"
     inkscape:current-layer="svg42" />
  <g
     id="g40">
    <path
       d="M20.5,25h-1c-0.3,0-0.5-0.2-0.5-0.5v-1c0-0.3,0.2-0.5,0.5-0.5h1c0.3,0,0.5,0.2,0.5,0.5v1C21,24.8,20.8,25,20.5,25z"
       id="path2" />
    <path
       d="M16.5,25h-1c-0.3,0-0.5-0.2-0.5-0.5v-1c0-0.3,0.2-0.5,0.5-0.5h1c0.3,0,0.5,0.2,0.5,0.5v1C17,24.8,16.8,25,16.5,25z"
       id="path4" />
    <path
       d="M12.5,25h-1c-0.3,0-0.5-0.2-0.5-0.5v-1c0-0.3,0.2-0.5,0.5-0.5h1c0.3,0,0.5,0.2,0.5,0.5v1C13,24.8,12.8,25,12.5,25z"
       id="path6" />
    <path
       d="M8.5,25h-1C7.2,25,7,24.8,7,24.5v-1C7,23.2,7.2,23,7.5,23h1C8.8,23,9,23.2,9,23.5v1C9,24.8,8.8,25,8.5,25z"
       id="path8" />
    <path
       d="M24.5,21h-1c-0.3,0-0.5-0.2-0.5-0.5v-1c0-0.3,0.2-0.5,0.5-0.5h1c0.3,0,0.5,0.2,0.5,0.5v1C25,20.8,24.8,21,24.5,21z"
       id="path10" />
    <path
       d="M20.5,21h-1c-0.3,0-0.5-0.2-0.5-0.5v-1c0-0.3,0.2-0.5,0.5-0.5h1c0.3,0,0.5,0.2,0.5,0.5v1C21,20.8,20.8,21,20.5,21z"
       id="path12" />
    <path
       d="M16.5,21h-1c-0.3,0-0.5-0.2-0.5-0.5v-1c0-0.3,0.2-0.5,0.5-0.5h1c0.3,0,0.5,0.2,0.5,0.5v1C17,20.8,16.8,21,16.5,21z"
       id="path14" />
    <path
       d="M12.5,21h-1c-0.3,0-0.5-0.2-0.5-0.5v-1c0-0.3,0.2-0.5,0.5-0.5h1c0.3,0,0.5,0.2,0.5,0.5v1C13,20.8,12.8,21,12.5,21z"
       id="path16" />
    <path
       d="M8.5,21h-1C7.2,21,7,20.8,7,20.5v-1C7,19.2,7.2,19,7.5,19h1C8.8,19,9,19.2,9,19.5v1C9,20.8,8.8,21,8.5,21z"
       id="path18" />
    <path
       d="M24.5,17h-1c-0.3,0-0.5-0.2-0.5-0.5v-1c0-0.3,0.2-0.5,0.5-0.5h1c0.3,0,0.5,0.2,0.5,0.5v1C25,16.8,24.8,17,24.5,17z"
       id="path20" />
    <path
       d="M20.5,17h-1c-0.3,0-0.5-0.2-0.5-0.5v-1c0-0.3,0.2-0.5,0.5-0.5h1c0.3,0,0.5,0.2,0.5,0.5v1C21,16.8,20.8,17,20.5,17z"
       id="path22" />
    <path
       d="M16.5,17h-1c-0.3,0-0.5-0.2-0.5-0.5v-1c0-0.3,0.2-0.5,0.5-0.5h1c0.3,0,0.5,0.2,0.5,0.5v1C17,16.8,16.8,17,16.5,17z"
       id="path24" />
    <path
       d="M12.5,17h-1c-0.3,0-0.5-0.2-0.5-0.5v-1c0-0.3,0.2-0.5,0.5-0.5h1c0.3,0,0.5,0.2,0.5,0.5v1C13,16.8,12.8,17,12.5,17z"
       id="path26" />
    <path
       d="M8.5,17h-1C7.2,17,7,16.8,7,16.5v-1C7,15.2,7.2,15,7.5,15h1C8.8,15,9,15.2,9,15.5v1C9,16.8,8.8,17,8.5,17z"
       id="path28" />
    <path
       d="M24.5,13h-1c-0.3,0-0.5-0.2-0.5-0.5v-1c0-0.3,0.2-0.5,0.5-0.5h1c0.3,0,0.5,0.2,0.5,0.5v1C25,12.8,24.8,13,24.5,13z"
       id="path30" />
    <path
       d="M20.5,13h-1c-0.3,0-0.5-0.2-0.5-0.5v-1c0-0.3,0.2-0.5,0.5-0.5h1c0.3,0,0.5,0.2,0.5,0.5v1C21,12.8,20.8,13,20.5,13z"
       id="path32" />
    <path
       d="M16.5,13h-1c-0.3,0-0.5-0.2-0.5-0.5v-1c0-0.3,0.2-0.5,0.5-0.5h1c0.3,0,0.5,0.2,0.5,0.5v1C17,12.8,16.8,13,16.5,13z"
       id="path34" />
    <path
       d="M12.5,13h-1c-0.3,0-0.5-0.2-0.5-0.5v-1c0-0.3,0.2-0.5,0.5-0.5h1c0.3,0,0.5,0.2,0.5,0.5v1C13,12.8,12.8,13,12.5,13z"
       id="path36" />
    <path
       d="M26,3h-6h-8H6C4.3,3,3,4.3,3,6v20c0,1.7,1.3,3,3,3h20c1.7,0,3-1.3,3-3V6C29,4.3,27.7,3,26,3z M27,23v0.2V26       c0,0.6-0.4,1-1,1h-2.8H23H9H8.8H6c-0.6,0-1-0.4-1-1v-2.8V23V10c0-0.6,0.4-1,1-1h20c0.6,0,1,0.4,1,1V23z"
       id="path38" />
  </g>
</svg>
