<?xml version="1.0" encoding="UTF-8" standalone="no"?>
<svg
   xmlns:dc="http://purl.org/dc/elements/1.1/"
   xmlns:cc="http://creativecommons.org/ns#"
   xmlns:rdf="http://www.w3.org/1999/02/22-rdf-syntax-ns#"
   xmlns:svg="http://www.w3.org/2000/svg"
   xmlns="http://www.w3.org/2000/svg"
   xmlns:sodipodi="http://sodipodi.sourceforge.net/DTD/sodipodi-0.dtd"
   xmlns:inkscape="http://www.inkscape.org/namespaces/inkscape"
   class="icon__category"
   version="1.1"
   viewBox="0 0 32 32"
   id="svg6"
   sodipodi:docname="category.svg"
   inkscape:version="0.92.4 (5da689c313, 2019-01-14)">
  <metadata
     id="metadata12">
    <rdf:RDF>
      <cc:Work
         rdf:about="">
        <dc:format>image/svg+xml</dc:format>
        <dc:type
           rdf:resource="http://purl.org/dc/dcmitype/StillImage" />
        <dc:title></dc:title>
      </cc:Work>
    </rdf:RDF>
  </metadata>
  <defs
     id="defs10" />
  <sodipodi:namedview
     pagecolor="#ffffff"
     bordercolor="#666666"
     borderopacity="1"
     objecttolerance="10"
     gridtolerance="10"
     guidetolerance="10"
     inkscape:pageopacity="0"
     inkscape:pageshadow="2"
     inkscape:window-width="846"
     inkscape:window-height="480"
     id="namedview8"
     showgrid="false"
     inkscape:zoom="7.375"
     inkscape:cx="16"
     inkscape:cy="16"
     inkscape:window-x="988"
     inkscape:window-y="380"
     inkscape:window-maximized="0"
     inkscape:current-layer="svg6" />
  <g
     id="g4">
    <path
       d="M26,8H12V7c0-1.7-1.3-3-3-3H6C4.3,4,3,5.3,3,7v1v17c0,1.7,1.3,3,3,3h20c1.7,0,3-1.3,3-3V11C29,9.3,27.7,8,26,8z M6,6h3       c0.6,0,1,0.4,1,1c0,0.6-0.4,1-1,1H6C5.4,8,5,7.6,5,7C5,6.4,5.4,6,6,6z M27,13.8v8.4V25c0,0.6-0.4,1-1,1h-2.8H8.8H6       c-0.6,0-1-0.4-1-1v-2.8v-8.4V11c0-0.6,0.4-1,1-1h2.8h14.4H26c0.6,0,1,0.4,1,1V13.8z"
       id="path2" />
  </g>
</svg>
