<svg width="32" height="32" version="1.1" viewBox="0 0 8.4667 8.4667" xmlns="http://www.w3.org/2000/svg">
 <g transform="translate(0 -288.53)">
  <path transform="matrix(.26458 0 0 .26458 0 288.53)" d="m20 2a10 10 0 0 0-10 10 10 10 0 0 0 2.2617 6.3242l-9.9688 9.9688a1 1 0 0 0-0.29297 0.70703 1 1 0 0 0 1 1 1 1 0 0 0 0.70703-0.29297l9.9687-9.9688a10 10 0 0 0 6.3242 2.2617 10 10 0 0 0 10-10 10 10 0 0 0-10-10zm0 2a8 8 0 0 1 8 8 8 8 0 0 1-8 8 8 8 0 0 1-8-8 8 8 0 0 1 8-8z" style="fill:#000000;opacity:.99;paint-order:stroke fill markers"/>
 </g>
</svg>
