<svg width="32" height="32" version="1.1" viewBox="0 0 8.4667 8.4667" xmlns="http://www.w3.org/2000/svg">
 <g transform="translate(0 -288.53)">
  <g transform="translate(0 -2.7665e-6)" style="opacity:.99">
   <g transform="matrix(.22825 0 0 .22825 .53295 289.14)" data-name="Layer 2">
    <g data-name="Layer 1">
     <path class="cls-1" d="m16.29 0a16.29 16.29 0 0 0-5.15 31.75c0.82 0.15 1.11-0.36 1.11-0.79v-2.77c-4.55 0.99-5.51-2.19-5.51-2.19a4.36 4.36 0 0 0-1.81-2.39c-1.47-1 0.12-1 0.12-1a3.43 3.43 0 0 1 2.49 1.68 3.48 3.48 0 0 0 4.74 1.36 3.46 3.46 0 0 1 1-2.18c-3.62-0.41-7.42-1.81-7.42-8a6.3 6.3 0 0 1 1.67-4.37 5.94 5.94 0 0 1 0.16-4.31s1.37-0.44 4.48 1.67a15.41 15.41 0 0 1 8.16 0c3.11-2.11 4.47-1.67 4.47-1.67a5.91 5.91 0 0 1 0.2 4.28 6.3 6.3 0 0 1 1.67 4.37c0 6.26-3.81 7.63-7.44 8a3.85 3.85 0 0 1 1.11 3v4.47c0 0.53 0.29 0.94 1.12 0.78a16.29 16.29 0 0 0-5.17-31.69z" style="fill-rule:evenodd;fill:#191717"/>
    </g>
   </g>
  </g>
 </g>
</svg>
