<?xml version="1.0" encoding="utf-8"?>
<svg xmlns="http://www.w3.org/2000/svg">
  <symbol viewBox="0 0 24 24" id="folder">
    <path d="M3 5h6l1 2h11v12H3z"/>
  </symbol>

  <symbol viewBox="0 0 24 24" id="calendar-event">
    <path d="M3 5H21V21H3V5Z"/>
    <path d="M21 9H3"/>
    <path d="M7 5V3"/>
    <path d="M17 5V3"/>
    <rect x="15" y="15" width="2" height="2"/>
  </symbol>

  <symbol viewBox="0 0 1024 1024" id="social-github">
  <path fill-rule="evenodd" clip-rule="evenodd" d="M8 0C3.58 0 0 3.58 0 8C0 11.54 2.29 14.53 5.47 15.59C5.87 15.66 6.02 15.42 6.02 15.21C6.02 15.02 6.01 14.39 6.01 13.72C4 14.09 3.48 13.23 3.32 12.78C3.23 12.55 2.84 11.84 2.5 11.65C2.22 11.5 1.82 11.13 2.49 11.12C3.12 11.11 3.57 11.7 3.72 11.94C4.44 13.15 5.59 12.81 6.05 12.6C6.12 12.08 6.33 11.73 6.56 11.53C4.78 11.33 2.92 10.64 2.92 7.58C2.92 6.71 3.23 5.99 3.74 5.43C3.66 5.23 3.38 4.41 3.82 3.31C3.82 3.31 4.49 3.1 6.02 4.13C6.66 3.95 7.34 3.86 8.02 3.86C8.7 3.86 9.38 3.95 10.02 4.13C11.55 3.09 12.22 3.31 12.22 3.31C12.66 4.41 12.38 5.23 12.3 5.43C12.81 5.99 13.12 6.7 13.12 7.58C13.12 10.65 11.25 11.33 9.47 11.53C9.76 11.78 10.01 12.26 10.01 13.01C10.01 14.08 10 14.94 10 15.21C10 15.42 10.15 15.67 10.55 15.59C13.71 14.53 16 11.53 16 8C16 3.58 12.42 0 8 0Z" transform="scale(64)" fill="#1B1F23"/>
  </symbol>
  <symbol viewBox="0 0 291.319 291.319" id="social-flickr">
    <path style="fill:#E4E7E7;" d="M145.659,0c80.45,0,145.66,65.219,145.66,145.66c0,80.45-65.21,145.659-145.66,145.659
		  S0,226.109,0,145.66C0,65.219,65.21,0,145.659,0z"/>
    <path style="fill:#FF0084;" d="M136.665,145.623c0,20.055-16.323,36.324-36.47,36.324s-36.47-16.268-36.47-36.324
      s16.323-36.333,36.47-36.333S136.665,125.568,136.665,145.623z"/>
    <path style="fill:#0063DC;" d="M227.702,145.623c0,20.055-16.323,36.324-36.47,36.324s-36.469-16.268-36.469-36.324
      s16.323-36.333,36.469-36.333S227.702,125.568,227.702,145.623z"/>
  </symbol>

  <symbol viewBox="0 0 24 24" id="search">
    <path d="M14.4121122,14.4121122 L20,20"/>
    <circle cx="10" cy="10" r="6"/>
  </symbol>
</svg>