<?xml version="1.0" encoding="UTF-8" standalone="no"?>
<svg
   role="img"
   width="24px"
   height="24px"
   viewBox="0 0 24 24"
   aria-labelledby="sunIconTitle"
   stroke="#000000"
   stroke-width="1.5"
   stroke-linecap="round"
   stroke-linejoin="round"
   fill="none"
   color="#000000"
   version="1.1"
   id="svg1"
   sodipodi:docname="sun.svg"
   inkscape:version="1.3.2 (091e20e, 2023-11-25, custom)"
   xmlns:inkscape="http://www.inkscape.org/namespaces/inkscape"
   xmlns:sodipodi="http://sodipodi.sourceforge.net/DTD/sodipodi-0.dtd"
   xmlns="http://www.w3.org/2000/svg"
   xmlns:svg="http://www.w3.org/2000/svg"
   xmlns:rdf="http://www.w3.org/1999/02/22-rdf-syntax-ns#"
   xmlns:cc="http://creativecommons.org/ns#"
   xmlns:dc="http://purl.org/dc/elements/1.1/">
  <defs
     id="defs1" />
  <sodipodi:namedview
     id="namedview1"
     pagecolor="#ffffff"
     bordercolor="#000000"
     borderopacity="0.25"
     inkscape:showpageshadow="2"
     inkscape:pageopacity="0.0"
     inkscape:pagecheckerboard="0"
     inkscape:deskcolor="#d1d1d1"
     inkscape:zoom="24.188944"
     inkscape:cx="3.4726608"
     inkscape:cy="13.952655"
     inkscape:window-width="1920"
     inkscape:window-height="1017"
     inkscape:window-x="-8"
     inkscape:window-y="-8"
     inkscape:window-maximized="1"
     inkscape:current-layer="svg1" />
  <title
     id="sunIconTitle">Sun</title>
  <path
     id="circle1"
     style="stroke-width:2;stroke-dasharray:none"
     d="m 12,1.9999999 v 3 z M 4.9296876,4.9296874 7.0507813,7.0507811 Z m 14.1406244,0 -2.121093,2.1210937 z M 12,7.9999999 A 4,4 0 0 0 8.0000001,12 4,4 0 0 0 12,16 4,4 0 0 0 16,12 4,4 0 0 0 12,7.9999999 Z M 2.0000001,12 h 3 z M 19,12 h 3 z M 7.0507813,16.949219 4.9296876,19.070312 Z m 9.8984377,0 2.121093,2.121093 z M 12,19 v 3 z" />
  <metadata
     id="metadata1">
    <rdf:RDF>
      <cc:Work
         rdf:about="">
        <dc:title>Sun</dc:title>
      </cc:Work>
    </rdf:RDF>
  </metadata>
</svg>
